<?xml version="1.0" encoding="iso-8859-1"?>
<!-- Generator: Adobe Illustrator 19.0.0, SVG Export Plug-In . SVG Version: 6.00 Build 0)  -->
<svg xmlns="http://www.w3.org/2000/svg" xmlns:xlink="http://www.w3.org/1999/xlink" version="1.1" id="Capa_1" x="0px" y="0px" viewBox="0 0 512 512" style="enable-background:new 0 0 512 512;" xml:space="preserve" width="512px" height="512px">
<g>
	<g>
		<path d="M461.687,228.64h-41.925l-11.969-73.464c-1.453-8.917-7.654-15.95-15.788-18.705v-21.863c0-4.345-2.805-8.192-6.942-9.521    l-12.704-4.08c-2.3-7.657-5.354-15.063-9.123-22.125l9.29-15.414c2.372-3.937,1.757-8.983-1.493-12.233l-30.261-30.261    c-3.25-3.25-8.296-3.866-12.233-1.494l-15.414,9.29c-7.061-3.769-14.467-6.822-22.125-9.122l-4.081-12.705    C285.589,2.805,281.742,0,277.398,0h-42.795c-4.345,0-8.192,2.805-9.521,6.942L221,19.646c-7.658,2.3-15.064,5.354-22.125,9.122    l-15.414-9.29c-3.938-2.374-8.983-1.756-12.233,1.493l-30.261,30.262c-3.25,3.25-3.866,8.296-1.493,12.233l9.291,15.414    c-3.769,7.062-6.823,14.468-9.123,22.125l-12.704,4.08c-4.137,1.329-6.942,5.176-6.942,9.521v21.863    c-8.134,2.755-14.335,9.788-15.788,18.706L92.239,228.64H50.315c-5.523,0-10,4.477-10,10v51.004c0,5.523,4.477,10,10,10h25.12    l-6.694,9.052c-5.76,7.789-8.932,17.414-8.932,27.101v39.793c-5.149,0.407-9.201,4.714-9.201,9.968v66.526c0,5.523,4.477,10,10,10    h23.381V502c0,5.523,4.477,10,10,10h66.985c5.523,0,10-4.477,10-10v-39.916h170.052V502c0,5.523,4.477,10,10,10h66.985    c5.523,0,10-4.477,10-10v-39.916h23.381c5.523,0,10-4.477,10-10v-66.526c0-5.254-4.052-9.561-9.201-9.968v-39.793    c0-9.688-3.172-19.313-8.932-27.102l-6.694-9.052h25.121c5.523,0,10-4.477,10-10V238.64    C471.687,233.117,467.21,228.64,461.687,228.64z M139.995,121.898h0.001l10.909-3.504c3.292-1.058,5.804-3.741,6.643-7.095    c2.413-9.651,6.239-18.881,11.371-27.433c1.904-3.173,1.9-7.138-0.01-10.308l-8.267-13.716l19.196-19.196l13.716,8.267    c3.17,1.911,7.135,1.915,10.308,0.01c8.549-5.131,17.779-8.957,27.432-11.371c3.355-0.839,6.038-3.351,7.095-6.643L241.893,20    h28.213l3.504,10.91c1.058,3.292,3.741,5.804,7.095,6.642c9.653,2.414,18.882,6.24,27.432,11.371    c3.173,1.904,7.139,1.901,10.308-0.01l13.716-8.267l19.196,19.196l-8.267,13.716c-1.911,3.169-1.914,7.135-0.01,10.308    c5.131,8.551,8.958,17.78,11.371,27.432c0.839,3.354,3.351,6.038,6.643,7.095l10.909,3.504v13.312h-24.47    c-0.426-50.11-41.323-90.742-91.533-90.742c-50.21,0-91.107,40.632-91.535,90.743h-24.47V121.898z M256,88.18    c-26.105,0-47.392,21.024-47.818,47.03h-23.715C184.896,96.129,216.82,64.467,256,64.467s71.105,31.661,71.533,70.743h-23.715    C303.393,109.204,282.105,88.18,256,88.18z M283.815,135.21h-55.628c0.422-14.977,12.737-27.03,27.814-27.03    C271.078,108.18,283.393,120.233,283.815,135.21z M123.948,158.391c0.3-1.843,1.874-3.182,3.743-3.182H384.31    c1.868,0,3.442,1.338,3.743,3.182l19.754,121.252h-17.054l-15.824-99.209c-0.774-4.854-4.96-8.425-9.875-8.425H146.946    c-4.915,0-9.101,3.571-9.875,8.425l-15.824,99.209h-17.054L123.948,158.391z M370.502,279.643H141.5l13.978-87.633h201.046    L370.502,279.643z M99.609,300.591c0.225-0.305,0.433-0.622,0.621-0.948h311.543c0.188,0.327,0.395,0.644,0.621,0.949    l14.785,19.994c3.232,4.372,5.013,9.773,5.013,15.21v39.761h-30.955V334.49c0-5.523-4.477-10-10-10h-81.639    c-5.523,0-10,4.477-10,10v41.067h-89.289V334.49c0-5.523-4.477-10-10-10h-79.545c-5.523,0-10,4.477-10,10v41.067H79.81v-39.761    c0-5.437,1.78-10.839,5.013-15.21L99.609,300.591z M381.237,344.491v31.067h-61.639v-31.067H381.237z M190.31,344.491v31.067    h-59.545v-31.067H190.31z M60.315,279.644V248.64H88.98l-5.051,31.004H60.315z M150.974,492h-46.985v-29.916h46.985V492z     M408.011,492h-46.985v-29.916h46.985V492z M441.393,395.558v46.526H70.609v-46.526H441.393z M451.687,279.643H428.07    l-5.051-31.004h28.667V279.643z" fill="#FFFFFF"/>
	</g>
</g>
<g>
	<g>
		<path d="M401.971,416.87c-0.13-0.64-0.32-1.27-0.57-1.87c-0.25-0.61-0.56-1.19-0.92-1.73c-0.37-0.55-0.79-1.06-1.25-1.52    c-0.46-0.46-0.97-0.88-1.52-1.24c-0.54-0.36-1.12-0.67-1.72-0.92c-0.61-0.25-1.24-0.44-1.87-0.57c-1.29-0.26-2.62-0.26-3.91,0    c-0.64,0.13-1.27,0.32-1.87,0.57c-0.61,0.25-1.19,0.56-1.73,0.92c-0.55,0.36-1.06,0.78-1.52,1.24c-0.46,0.46-0.88,0.97-1.24,1.52    c-0.36,0.54-0.67,1.12-0.92,1.73c-0.25,0.6-0.44,1.23-0.57,1.87s-0.2,1.3-0.2,1.95s0.07,1.31,0.2,1.95s0.32,1.27,0.57,1.88    c0.25,0.6,0.56,1.18,0.92,1.72c0.36,0.55,0.78,1.06,1.24,1.52c0.46,0.46,0.97,0.88,1.52,1.24c0.54,0.37,1.12,0.67,1.73,0.93    c0.6,0.25,1.23,0.44,1.87,0.57s1.3,0.19,1.95,0.19c0.65,0,1.31-0.06,1.96-0.19c0.63-0.13,1.26-0.32,1.87-0.57    c0.6-0.26,1.18-0.56,1.72-0.93c0.55-0.36,1.06-0.78,1.52-1.24c0.46-0.46,0.88-0.97,1.25-1.52c0.36-0.54,0.67-1.12,0.92-1.72    c0.25-0.61,0.44-1.24,0.57-1.88s0.19-1.3,0.19-1.95S402.101,417.51,401.971,416.87z" fill="#FFFFFF"/>
	</g>
</g>
<g>
	<g>
		<path d="M351.041,408.821H119.838c-5.523,0-10,4.477-10,10s4.477,10,10,10h231.202c5.523,0,10-4.477,10-10    S356.564,408.821,351.041,408.821z" fill="#FFFFFF"/>
	</g>
</g>
<g>
	<g>
		<path d="M214.661,201.227c-3.906-3.905-10.238-3.905-14.143,0l-31.281,31.281c-3.905,3.906-3.905,10.238,0,14.143    c1.952,1.953,4.512,2.929,7.071,2.929s5.118-0.976,7.072-2.929l31.281-31.281C218.565,211.464,218.565,205.132,214.661,201.227z" fill="#FFFFFF"/>
	</g>
</g>
<g>
	<g>
		<path d="M253.456,206.746c-3.906-3.905-10.238-3.905-14.143,0l-50.324,50.324c-3.905,3.906-3.905,10.238,0,14.143    c1.952,1.953,4.512,2.929,7.071,2.929c2.559,0,5.119-0.976,7.072-2.929l50.324-50.324    C257.361,216.983,257.361,210.651,253.456,206.746z" fill="#FFFFFF"/>
	</g>
</g>
<g>
</g>
<g>
</g>
<g>
</g>
<g>
</g>
<g>
</g>
<g>
</g>
<g>
</g>
<g>
</g>
<g>
</g>
<g>
</g>
<g>
</g>
<g>
</g>
<g>
</g>
<g>
</g>
<g>
</g>
</svg>
