<?xml version="1.0" encoding="iso-8859-1"?>
<!-- Generator: Adobe Illustrator 19.0.0, SVG Export Plug-In . SVG Version: 6.00 Build 0)  -->
<svg xmlns="http://www.w3.org/2000/svg" xmlns:xlink="http://www.w3.org/1999/xlink" version="1.1" id="Capa_1" x="0px" y="0px" viewBox="0 0 512 512" style="enable-background:new 0 0 512 512;" xml:space="preserve" width="512px" height="512px">
<g>
	<g>
		<path d="M419.6,123.521c-1.39-4.051-5.19-6.771-9.46-6.771c-1.1,0-2.19,0.18-3.24,0.54c-2.53,0.87-4.57,2.66-5.74,5.06    c-1.18,2.4-1.35,5.11-0.49,7.641c1.39,4.05,5.19,6.77,9.47,6.77c1.09,0,2.18-0.18,3.23-0.54    C418.59,134.431,421.38,128.731,419.6,123.521z" fill="#FFFFFF"/>
	</g>
</g>
<g>
	<g>
		<path d="M502,233c5.523,0,10-4.478,10-10v-20c0-34.427-6.87-65.383-20.419-92.009c-12.807-25.167-31.609-46.572-55.885-63.623    C391.575,16.38,329.437,0,256,0S120.425,16.38,76.304,47.368c-24.275,17.051-43.078,38.456-55.885,63.623    C6.87,137.617,0,168.573,0,203v20c0,5.522,4.477,10,10,10s10-4.478,10-10v-10h60v10c0,5.522,4.477,10,10,10s10-4.478,10-10v-10h64    v10c0,5.522,4.477,10,10,10s10-4.478,10-10v-10h62v42.313c-18.22,4.841-31.775,22.587-31.775,43.688    c0,7.701,1.808,14.954,4.986,21.298c-9.936,3.305-18.553,10.027-24.711,18.96c-6.158-8.934-14.776-15.653-24.713-18.957    c3.179-6.345,4.988-13.6,4.988-21.302c0-24.813-18.74-45-41.775-45c-23.035,0-41.775,20.187-41.775,45    c0,7.691,1.804,14.936,4.974,21.275c-14.421,4.804-26.044,16.849-31.43,32.317C44.925,356.07,29.725,374.655,29.725,397    c0,7.691,1.804,14.937,4.975,21.275C14.653,424.951,0,445.607,0,470v32c0,5.522,4.477,10,10,10h492c5.523,0,10-4.478,10-10v-32    c0-24.394-14.655-45.044-34.704-51.715c3.174-6.341,4.979-13.589,4.979-21.285c0-22.341-15.194-40.923-35.035-44.406    c-5.387-15.471-17.017-27.512-31.442-32.315c3.172-6.34,4.977-13.586,4.977-21.279c0-24.813-18.74-45-41.775-45    c-23.035,0-41.775,20.187-41.775,45c0,7.7,1.808,14.954,4.985,21.298c-9.936,3.304-18.552,10.027-24.71,18.961    c-6.157-8.933-14.765-15.676-24.698-18.986c3.17-6.338,4.973-13.582,4.973-21.272c0-21.101-13.555-38.847-31.775-43.688V213h62v10    c0,5.522,4.477,10,10,10s10-4.478,10-10v-10h64v10c0,5.522,4.477,10,10,10s10-4.478,10-10v-10h60v10    C492,228.522,496.477,233,502,233z M96.86,111.72C86.77,136.17,81.184,163.475,80.18,193H20.211    c2.391-55.966,25.099-99.422,67.588-129.265c20.24-14.216,44.786-25.099,72.858-32.454c-7.338,5.142-14.319,10.848-20.818,17.038    C121.46,65.83,106.99,87.16,96.86,111.72z M164.164,193h-63.962c2.068-53.73,20.445-98.603,53.457-130.221    c20.633-19.747,46.819-33.616,73.583-39.548c-6.371,7.085-13.493,15.989-20.606,26.837C188.093,78.353,166.17,125.692,164.164,193    z M194.5,372c12.007,0,21.775,11.215,21.775,25c0,13.785-9.768,25-21.775,25c-12.007,0-21.775-11.215-21.775-25    C172.725,383.215,182.493,372,194.5,372z M133,274c12.007,0,21.775,11.215,21.775,25c0,13.785-9.768,25-21.775,25    c-12.007,0-21.775-11.215-21.775-25C111.225,285.215,120.993,274,133,274z M71.5,372c12.007,0,21.775,11.215,21.775,25    c0,13.785-9.768,25-21.775,25s-21.775-11.215-21.775-25C49.725,383.215,59.493,372,71.5,372z M123,492H20v-22    c0-18.748,12.855-34,28.657-34H50.7c6.13,3.809,13.23,6,20.8,6s14.67-2.191,20.8-6h2.042C110.145,436,123,451.252,123,470V492z     M133,437.259c-6.158-8.934-14.772-15.66-24.708-18.966c3.176-6.343,4.983-13.594,4.983-21.293    c0-19.507-11.585-36.148-27.731-42.376C90.549,344.679,99.705,338,110.157,338h2.042c6.13,3.809,13.23,6,20.8,6    c7.57,0,14.67-2.191,20.8-6h2.042c10.453,0,19.61,6.678,24.614,16.623c-16.146,6.228-27.732,22.869-27.732,42.377    c0,7.703,1.808,14.958,4.988,21.304C147.776,421.607,139.158,428.325,133,437.259z M246,492H143v-22c0-18.748,12.855-34,28.657-34    h2.042c6.13,3.809,13.23,6,20.8,6s14.67-2.191,20.8-6h2.042C233.145,436,246,451.252,246,470V492z M369,492H266v-22    c0-18.748,12.855-34,28.657-34h2.042c6.13,3.809,13.23,6,20.8,6c7.57,0,14.67-2.191,20.8-6h2.042C356.145,436,369,451.252,369,470    V492z M492,470v22H389v-22c0-18.748,12.855-34,28.657-34h2.042c6.13,3.809,13.23,6,20.8,6c7.57,0,14.67-2.191,20.8-6h2.042    C479.145,436,492,451.252,492,470z M440.5,372c12.007,0,21.775,11.215,21.775,25c0,13.785-9.768,25-21.775,25    c-12.007,0-21.775-11.215-21.775-25C418.725,383.215,428.493,372,440.5,372z M379,274c12.007,0,21.775,11.215,21.775,25    c0,13.785-9.768,25-21.775,25c-12.007,0-21.775-11.215-21.775-25C357.225,285.215,366.993,274,379,274z M356.157,338h2.042    c6.13,3.809,13.23,6,20.8,6c7.57,0,14.67-2.191,20.8-6h2.042c10.453,0,19.61,6.678,24.616,16.623    c-16.147,6.227-27.734,22.869-27.734,42.377c0,7.695,1.805,14.943,4.979,21.284c-9.934,3.31-18.546,10.042-24.704,18.975    c-6.158-8.933-14.769-15.667-24.705-18.972c3.174-6.342,4.98-13.591,4.98-21.287c0-19.507-11.584-36.147-27.729-42.376    C336.55,344.679,345.705,338,356.157,338z M317.5,372c12.007,0,21.775,11.215,21.775,25c0,13.785-9.768,25-21.775,25    c-12.007,0-21.775-11.215-21.775-25C295.725,383.215,305.493,372,317.5,372z M303.458,354.623    c-16.147,6.227-27.733,22.869-27.733,42.377c0,7.697,1.806,14.946,4.981,21.289c-9.935,3.309-18.548,10.037-24.706,18.97    c-6.157-8.933-14.765-15.676-24.698-18.986c3.17-6.338,4.973-13.582,4.973-21.272c0-19.51-11.588-36.152-27.737-42.378    c5.005-9.946,14.166-16.622,24.619-16.622h2.042c6.13,3.809,13.23,6,20.8,6s14.67-2.191,20.8-6h2.042    C289.295,338,298.453,344.678,303.458,354.623z M277.775,299c0,13.785-9.768,25-21.775,25c-12.007,0-21.775-11.215-21.775-25    c0-13.785,9.768-25,21.775-25C268.007,274,277.775,285.215,277.775,299z M184.172,193c1.963-61.844,21.824-105.208,38.635-131.112    c12.918-19.908,25.97-32.732,33.193-39.04c7.23,6.313,20.278,19.136,33.194,39.04c16.81,25.905,36.672,69.268,38.635,131.112    H184.172z M431.828,193c-0.342-9.887-1.192-19.556-2.548-28.86c-0.34-2.39-1.54-4.58-3.38-6.149c-2.18-1.87-5.1-2.721-7.95-2.311    c-2.64,0.38-4.98,1.771-6.58,3.91c-1.59,2.14-2.26,4.78-1.88,7.42c1.218,8.372,1.989,17.081,2.32,25.99h-63.974    c-2.005-67.308-23.929-114.647-42.473-142.932c-7.095-10.821-14.198-19.707-20.557-26.784    c13.561,3.016,27.096,8.045,39.714,14.885c24.68,13.359,45.51,33.27,60.25,57.59c1.83,3.01,5.03,4.82,8.56,4.82    c1.82,0,3.61-0.511,5.17-1.45c2.29-1.39,3.9-3.58,4.53-6.17c0.64-2.601,0.23-5.28-1.16-7.57c-8.59-14.18-19-27.05-30.94-38.229    c-6.153-5.766-12.718-11.063-19.612-15.886c28.083,7.356,52.637,18.241,72.883,32.461c42.49,29.843,65.197,73.299,67.588,129.265    H431.828z" fill="#FFFFFF"/>
	</g>
</g>
<g>
</g>
<g>
</g>
<g>
</g>
<g>
</g>
<g>
</g>
<g>
</g>
<g>
</g>
<g>
</g>
<g>
</g>
<g>
</g>
<g>
</g>
<g>
</g>
<g>
</g>
<g>
</g>
<g>
</g>
</svg>
