<?xml version="1.0" encoding="utf-8"?>
<!-- Generator: Adobe Illustrator 17.0.0, SVG Export Plug-In . SVG Version: 6.00 Build 0)  -->
<svg version="1.2" baseProfile="tiny" id="Layer_1" xmlns="http://www.w3.org/2000/svg" xmlns:xlink="http://www.w3.org/1999/xlink"
	 x="0px" y="0px" width="1280px" height="720px" viewBox="0 0 1280 720" xml:space="preserve">
<g>
	<rect x="166.114" y="394.004" fill="#8F95A9" width="1012.449" height="238.727"/>
	<rect x="166.114" y="496.354" fill="#F2F2F2" width="121.591" height="27.256"/>
	<rect x="324.235" y="496.374" fill="#F2F2F2" width="219.253" height="27.25"/>
	<rect x="580.025" y="496.374" fill="#F2F2F2" width="219.243" height="27.25"/>
	<rect x="835.798" y="496.374" fill="#F2F2F2" width="219.254" height="27.25"/>
	<rect x="1091.569" y="496.354" fill="#F2F2F2" width="86.995" height="27.256"/>
	<image width="934" height="75" xlink:href="159374E6.png"  transform="matrix(1 0 0 1 189 436)">
	</image>
	<path fill="#5F668E" d="M631.971,422.369l-1.758-14.683C631.352,412.399,631.971,417.312,631.971,422.369z"/>
	<path fill="#FF8000" d="M606.499,306.294l-10.795-25.752l-17.496-41.633l-1.018-2.437c-5.323-12.626-19.923-18.608-32.599-13.279
		l-37.722,15.865l-33.265-50.907c-6.738-10.243-16.627-19.976-32.598-13.288l-171.083,71.958
		c-12.673,5.323-16.378,18.146-13.282,32.552l13.891,59.073l-38.534,16.171c-12.633,5.319-18.615,19.929-13.286,32.605
		l29.353,69.768c5.33,12.672,19.93,18.605,32.559,13.282l14.347-6.032c-11.561-27.436,1.372-59.019,28.797-70.583
		c27.486-11.554,59.072,1.372,70.63,28.797l83.163-34.978c-2.233-5.323-3.598-10.802-4.058-16.228
		c-0.56-6.541,0.099-13.079,1.874-19.217c4.261-15.263,15.262-28.494,30.984-35.139c14.703-6.182,30.621-5.373,43.963,0.965
		c11.608,5.479,21.242,15.109,26.614,27.832l16.281-6.841c7.147-3,12.167-8.978,14.197-15.872c0.506-1.674,0.862-3.392,1.009-5.119
		C608.683,314,608.073,310.049,606.499,306.294z M282.196,333.527l-13.445-56.995c-1.265-5.576-1.465-12.773,3.405-16.681
		l27.785,66.216L282.196,333.527z M310.487,321.663l-28.038-66.629l72.61-30.525l27.985,66.629L310.487,321.663z M393.544,286.728
		l-27.989-66.636l73.216-30.771l27.995,66.618L393.544,286.728z M477.312,251.486l-27.892-66.273
		c3.858-0.662,8.015,0.962,13.791,9.784l31.993,48.983L477.312,251.486z"/>
	<path fill="#BE894A" d="M272.133,259.874l27.825,66.186l-17.782,7.477l-13.438-56.986
		C267.509,270.949,267.279,263.759,272.133,259.874z"/>
	
		<rect x="296.625" y="233.719" transform="matrix(-0.3875 -0.9219 0.9219 -0.3875 209.9626 685.6614)" fill="#BE894A" width="72.256" height="78.727"/>
	<polygon fill="#BE894A" points="438.771,189.314 466.777,255.923 393.556,286.701 365.548,220.105 	"/>
	<path fill="#BE894A" d="M495.194,243.973l-17.906,7.526l-27.875-66.293c3.865-0.646,8.022,0.985,13.804,9.803L495.194,243.973z"/>
	<path fill="#9FDBE9" d="M272.133,259.874l27.825,66.186l-17.782,7.477l-13.438-56.986
		C267.509,270.949,267.279,263.759,272.133,259.874z"/>
	
		<rect x="296.625" y="233.719" transform="matrix(-0.3875 -0.9219 0.9219 -0.3875 209.9626 685.6614)" fill="#9FDBE9" width="72.256" height="78.727"/>
	<polygon fill="#9FDBE9" points="438.771,189.314 466.777,255.923 393.556,286.701 365.548,220.105 	"/>
	<path fill="#9FDBE9" d="M495.194,243.973l-17.906,7.526l-27.875-66.293c3.865-0.646,8.022,0.985,13.804,9.803L495.194,243.973z"/>
	<path fill="#4D5373" d="M362.373,485.423c-23.192,9.747-49.998-1.189-59.745-24.37c-9.753-23.199,1.188-49.992,24.377-59.745
		c23.189-9.76,49.985,1.185,59.732,24.377C396.496,448.876,385.558,475.669,362.373,485.423z"/>
	<path fill="#4D5373" d="M545.263,408.521c-23.192,9.76-49.995-1.179-59.749-24.37c-9.747-23.192,1.178-49.992,24.384-59.745
		c23.184-9.747,49.994,1.192,59.741,24.377C579.386,371.975,568.447,398.774,545.263,408.521z"/>
	<path fill="#E8E8E8" d="M367.559,433.75c5.323,12.636-0.632,27.179-13.252,32.489c-12.636,5.32-27.186-0.626-32.499-13.258
		c-5.309-12.636,0.622-27.186,13.262-32.489C347.693,415.179,362.249,421.111,367.559,433.75z"/>
	<path fill="#E8E8E8" d="M550.456,356.848c5.316,12.636-0.622,27.186-13.259,32.489c-12.639,5.326-27.185-0.612-32.498-13.252
		c-5.31-12.63,0.622-27.186,13.265-32.496C530.596,338.277,545.15,344.216,550.456,356.848z"/>
	<path fill="#FFE610" d="M578.194,238.91l17.51,41.656c6.501-6.901,8.785-17.266,4.864-26.584
		C596.646,244.662,587.648,239.03,578.194,238.91z"/>
	<rect x="496.609" y="360.916" fill="#3F8D89" width="553.17" height="71.109"/>
	<path fill="#4A5C8E" d="M1114.105,314.157v69.262h-56.996c-4.3,0-7.849,3.545-7.849,7.862v32.902c0,4.311,3.548,7.859,7.849,7.859
		h-41.629c0-37.013-30.112-67.082-67.082-67.082c-37.009,0-67.075,30.069-67.075,67.082h-13.901c-4.307,0-7.856-3.548-7.856-7.859
		V188.402c0-4.307,3.548-7.85,7.856-7.85h171.04c4.307,0,7.856,3.542,7.856,7.85l9.48,110.639l50.451,7.203
		C1110.603,306.244,1114.105,309.85,1114.105,314.157z"/>
	<polygon fill="#9FDBE9" points="924.431,198.731 1026.664,198.731 1035.845,301.587 924.431,301.587 	"/>
	<path fill="#CCCCCC" d="M1127.899,335.417v88.769c0,4.331-3.482,7.856-7.862,7.856h-62.927c-4.327,0-7.849-3.525-7.849-7.856
		v-32.892c0-4.33,3.522-7.856,7.849-7.856h56.996v-55.877h5.932C1124.417,327.562,1127.899,331.094,1127.899,335.417z"/>
	<path fill="#575A7A" d="M644.84,432.025c0,31.461-25.512,56.959-56.956,56.959c-31.467,0-56.942-25.498-56.942-56.959
		c0-31.45,25.475-56.945,56.942-56.945C619.328,375.08,644.84,400.576,644.84,432.025z"/>
	<path fill="#575A7A" d="M767.905,432.025c0,31.461-25.485,56.959-56.956,56.959c-31.438,0-56.943-25.498-56.943-56.959
		c0-31.45,25.505-56.945,56.943-56.945C742.42,375.08,767.905,400.576,767.905,432.025z"/>
	<path fill="#E5E5E5" d="M620.756,432.025c0,18.152-14.717,32.882-32.872,32.882c-18.165,0-32.881-14.73-32.881-32.882
		c0-18.161,14.717-32.871,32.881-32.871C606.039,399.154,620.756,413.864,620.756,432.025z"/>
	<path fill="#E5E5E5" d="M743.845,432.025c0,18.152-14.713,32.882-32.895,32.882c-18.135,0-32.855-14.73-32.855-32.882
		c0-18.161,14.72-32.871,32.855-32.871C729.131,399.154,743.845,413.864,743.845,432.025z"/>
	<path fill="#575A7A" d="M1005.333,432.036c0,31.467-25.492,56.962-56.942,56.962c-31.457,0-56.956-25.495-56.956-56.962
		c0-31.454,25.498-56.949,56.956-56.949C979.841,375.087,1005.333,400.582,1005.333,432.036z"/>
	<path fill="#E5E5E5" d="M981.273,432.036c0,18.155-14.72,32.879-32.881,32.879c-18.155,0-32.875-14.723-32.875-32.879
		c0-18.152,14.72-32.868,32.875-32.868C966.553,399.167,981.273,413.884,981.273,432.036z"/>
	<polygon fill="#58BBB8" points="844.16,189.83 844.16,371.249 463.874,371.249 463.874,358.22 475.378,352.032 487.042,345.747 
		532.523,321.154 538.662,317.859 787.118,317.859 794.868,273.09 804.349,218.274 809.275,189.83 	"/>
	<path fill="#FFE610" d="M1114.105,341.077v36.281c6.964-3.076,11.877-10.043,11.877-18.159
		C1125.982,351.076,1121.069,344.109,1114.105,341.077z"/>
	<path fill="#CCCCCC" d="M983.53,169.698v10.845h-75.038v-10.845c0-3.21,1.978-5.802,4.467-5.802h66.103
		C981.519,163.896,983.53,166.488,983.53,169.698z"/>
	<polygon fill="#FF4000" points="970.315,163.896 921.674,163.896 927.553,139.712 964.47,139.712 	"/>
	<polygon fill="#58BBB8" points="804.349,218.274 794.868,273.09 643.461,174.461 639.007,171.525 633.635,168.02 644.84,146.326 	
		"/>
	<path fill="#B3B3B3" d="M643.461,174.461l-34.519,143.397h-0.516c0.256-3.859-0.353-7.809-1.927-11.564l32.508-134.769
		L643.461,174.461z"/>
</g>
</svg>
