<?xml version="1.0" encoding="iso-8859-1"?>
<!-- Generator: Adobe Illustrator 19.0.0, SVG Export Plug-In . SVG Version: 6.00 Build 0)  -->
<svg xmlns="http://www.w3.org/2000/svg" xmlns:xlink="http://www.w3.org/1999/xlink" version="1.1" id="Capa_1" x="0px" y="0px" viewBox="0 0 512.002 512.002" style="enable-background:new 0 0 512.002 512.002;" xml:space="preserve" width="512px" height="512px">
<g>
	<g>
		<path d="M137.001,133c-14.612,0-26.5,11.888-26.5,26.5s11.888,26.5,26.5,26.5s26.5-11.888,26.5-26.5S151.613,133,137.001,133z     M137.001,171c-6.341,0-11.5-5.159-11.5-11.5s5.159-11.5,11.5-11.5s11.5,5.159,11.5,11.5S143.342,171,137.001,171z" fill="#FFFFFF"/>
	</g>
</g>
<g>
	<g>
		<path d="M375.001,133c-14.612,0-26.5,11.888-26.5,26.5s11.888,26.5,26.5,26.5s26.5-11.888,26.5-26.5S389.613,133,375.001,133z     M375.001,171c-6.341,0-11.5-5.159-11.5-11.5s5.159-11.5,11.5-11.5s11.5,5.159,11.5,11.5S381.342,171,375.001,171z" fill="#FFFFFF"/>
	</g>
</g>
<g>
	<g>
		<path d="M459.727,277.999h-50.125c0.579-1.922,0.899-3.956,0.899-6.064V240.36c3.044-1.69,5.87-3.815,8.393-6.357    c7.06-7.115,10.903-16.561,10.825-26.597c-0.162-20.76-2.331-42.634-6.447-65.012c-2.29-12.452-10.657-22.483-21.712-27.296    L412.173,98h4.697c1.808,9.661,10.291,17,20.468,17h17.324c11.49,0,20.838-9.348,20.838-20.838v-7.324    c0-11.49-9.348-20.838-20.838-20.838h-17.324c-10.178,0-18.66,7.339-20.468,17H408c-2.594,0-5.004,1.341-6.372,3.545    l-6.941,11.182l-9.309-70.414C383.574,11.736,370.404,0,354.716,0h-197.43c-15.688,0-28.856,11.734-30.662,27.31l-9.31,70.418    l-6.941-11.183c-1.368-2.204-3.778-3.545-6.372-3.545h-8.87c-1.808-9.661-10.291-17-20.468-17H57.339    c-11.49,0-20.838,9.348-20.838,20.838v7.324c0,11.49,9.348,20.838,20.838,20.838h17.324c10.178,0,18.66-7.339,20.468-17h4.698    l10.599,17.077c-11.062,4.796-19.444,14.811-21.744,27.245c-3.46,18.695-5.513,37.182-6.162,55.108    c-0.027,0.258-0.041,0.519-0.041,0.783c0,0.031,0.004,0.061,0.005,0.092c-0.103,3.048-0.176,6.083-0.196,9.096    c-0.066,10.055,3.791,19.511,10.859,26.627c2.511,2.527,5.324,4.641,8.352,6.325v31.583c0,2.108,0.32,4.142,0.899,6.064H52.275    c-8.698,0-15.774,7.076-15.774,15.774v8.733c0,12.664,9.661,23.113,22,24.366v10.752c0,10.683,8.691,19.375,19.375,19.375h7.981    l139.134,64.089c-0.316,1.758-0.49,3.564-0.49,5.411c0,2.158,0.229,4.264,0.657,6.297L83.871,497.685    c-3.764,1.729-5.414,6.182-3.685,9.945c1.263,2.75,3.979,4.372,6.82,4.372c1.047,0,2.111-0.221,3.125-0.687l141.661-65.059    c5.599,6.567,13.923,10.744,23.209,10.744c9.507,0,18.01-4.374,23.608-11.214l142.254,65.526c1.017,0.468,2.083,0.69,3.133,0.69    c2.837,0,5.552-1.618,6.817-4.364c1.732-3.762,0.088-8.217-3.675-9.95l-142.179-65.491c0.35-1.847,0.542-3.75,0.542-5.697    c0-1.612-0.128-3.195-0.37-4.74L426.14,357h7.986c10.684,0,19.375-8.691,19.375-19.375v-10.752c12.339-1.253,22-11.703,22-24.367    v-8.733C475.501,285.075,468.425,277.999,459.727,277.999z M431.501,86.838c0-3.219,2.619-5.838,5.838-5.838h17.324    c3.219,0,5.838,2.619,5.838,5.838v7.324c0,3.219-2.619,5.838-5.838,5.838h-17.324c-3.219,0-5.838-2.619-5.838-5.838V86.838z     M80.501,94.162c0,3.219-2.619,5.838-5.838,5.838H57.339c-3.219,0-5.838-2.619-5.838-5.838v-7.324    c0-3.219,2.619-5.838,5.838-5.838h17.324c3.219,0,5.838,2.619,5.838,5.838V94.162z M157.286,15h197.43    c7.394,0,13.686,5.078,15.398,12.093H141.889C143.601,20.078,149.892,15,157.286,15z M103.434,145.051    C105.369,134.592,114.55,127,125.263,127h180.238c4.143,0,7.5-3.358,7.5-7.5c0-4.142-3.357-7.5-7.5-7.5H130.558l9.243-69.907    h232.401L381.444,112h-45.943c-4.143,0-7.5,3.358-7.5,7.5c0,4.142,3.357,7.5,7.5,7.5h51.176c10.727,0,19.913,7.615,21.843,18.107    c2.86,15.552,4.727,30.822,5.61,45.606h-67.821c-0.051-0.705-0.12-1.41-0.228-2.114l-3.018-19.694    c-1.987-12.982-12.964-22.405-26.098-22.405H195.037c-13.133,0-24.109,9.422-26.098,22.404l-3.017,19.695    c-0.108,0.704-0.177,1.41-0.228,2.114H97.851C98.715,175.799,100.574,160.507,103.434,145.051z M330.974,195.611    c-0.076,0.204-0.143,0.411-0.201,0.623c-0.463,1.372-1.173,2.664-2.14,3.79c-2.169,2.526-5.322,3.975-8.651,3.975H192.02    c-3.33,0-6.483-1.449-8.652-3.976c-0.967-1.126-1.678-2.419-2.14-3.792c-0.058-0.211-0.125-0.417-0.2-0.62    c-0.418-1.524-0.525-3.137-0.279-4.74l3.017-19.695c0.859-5.606,5.599-9.676,11.271-9.676h121.928    c5.672,0,10.412,4.069,11.271,9.676l3.017,19.694C331.499,192.473,331.393,194.085,330.974,195.611z M97.29,207.499    c0.004-0.592,0.026-1.192,0.033-1.786h71.792c0.822,1.435,1.776,2.805,2.872,4.082c5.022,5.85,12.324,9.205,20.034,9.205h127.962    c7.709,0,15.011-3.354,20.032-9.204c1.096-1.277,2.05-2.647,2.873-4.083h71.796c0.008,0.601,0.031,1.211,0.036,1.811    c0.048,6.007-2.252,11.659-6.473,15.914c-4.2,4.231-9.794,6.562-15.754,6.562H119.514c-5.947,0-11.531-2.324-15.723-6.544    C99.559,219.196,97.25,213.529,97.29,207.499z M395.501,245v26.936c0,3.344-2.721,6.064-6.064,6.064h-39.871    c-3.344,0-6.064-2.721-6.064-6.064V263.5V245h48.992H395.501z M196.575,271c9.885,0,17.926-8.042,17.926-17.926V245h83v8.074    c0,9.885,8.041,17.926,17.926,17.926h13.074v0.936c0,2.108,0.32,4.142,0.899,6.064H182.602c0.579-1.922,0.899-3.956,0.899-6.064    V271H196.575z M183.501,256v-11h16v8.074c0,1.614-1.313,2.926-2.926,2.926H183.501z M312.501,253.074V245h16v11h-13.074    C313.814,256,312.501,254.687,312.501,253.074z M168.501,245v18.5v8.436c0,3.344-2.721,6.064-6.064,6.064h-39.871    c-3.344,0-6.065-2.721-6.065-6.064V245h3.013H168.501z M101.501,337.625c0,2.412-1.962,4.375-4.375,4.375H77.875    c-2.412,0-4.374-1.962-4.374-4.375V327h28V337.625z M255.001,442c-8.547,0-15.5-6.953-15.5-15.5s6.953-15.5,15.5-15.5    s15.5,6.953,15.5,15.5S263.548,442,255.001,442z M438.501,337.625c0,2.412-1.963,4.375-4.375,4.375h-19.25    c-2.412,0-4.375-1.962-4.375-4.375V327h28V337.625z M460.501,302.507c0,5.234-4.259,9.493-9.493,9.493H180.501    c-4.142,0-7.5,3.358-7.5,7.5c0,4.142,3.358,7.5,7.5,7.5h215v10.625c0,5.568,2.374,10.58,6.147,14.117l-122.441,56.232    c-5.58-7.273-14.352-11.975-24.206-11.975c-9.611,0-18.192,4.473-23.786,11.441l-120.88-55.68    c3.784-3.538,6.167-8.558,6.167-14.135V327h34c4.142,0,7.5-3.358,7.5-7.5c0-4.142-3.358-7.5-7.5-7.5H60.994    c-5.234,0-9.493-4.258-9.493-9.493v-8.733c0-0.427,0.348-0.774,0.774-0.774h407.452c0.427,0,0.774,0.348,0.774,0.774V302.507z" fill="#FFFFFF"/>
	</g>
</g>
<g>
	<g>
		<path d="M217.001,175h-14c-4.142,0-7.5,3.358-7.5,7.5c0,4.142,3.358,7.5,7.5,7.5h14c4.142,0,7.5-3.358,7.5-7.5    C224.501,178.358,221.143,175,217.001,175z" fill="#FFFFFF"/>
	</g>
</g>
<g>
	<g>
		<path d="M312.001,175h-71c-4.142,0-7.5,3.358-7.5,7.5c0,4.142,3.358,7.5,7.5,7.5h71c4.143,0,7.5-3.358,7.5-7.5    C319.501,178.358,316.144,175,312.001,175z" fill="#FFFFFF"/>
	</g>
</g>
<g>
	<g>
		<path d="M174.001,51c-2.486-3.314-7.187-3.985-10.5-1.5l-16,12c-3.313,2.485-3.985,7.187-1.5,10.5c1.474,1.965,3.726,3,6.006,3    c1.566,0,3.145-0.489,4.494-1.5l16-12C175.814,59.015,176.486,54.313,174.001,51z" fill="#FFFFFF"/>
	</g>
</g>
<g>
	<g>
		<path d="M206.561,57.582c-2.44-3.347-7.13-4.083-10.479-1.642l-48,35c-3.347,2.44-4.082,7.132-1.641,10.479    c1.468,2.014,3.751,3.082,6.066,3.082c1.532,0,3.079-0.468,4.413-1.44l48-35C208.267,65.621,209.002,60.929,206.561,57.582z" fill="#FFFFFF"/>
	</g>
</g>
<g>
</g>
<g>
</g>
<g>
</g>
<g>
</g>
<g>
</g>
<g>
</g>
<g>
</g>
<g>
</g>
<g>
</g>
<g>
</g>
<g>
</g>
<g>
</g>
<g>
</g>
<g>
</g>
<g>
</g>
</svg>
