<?xml version="1.0" encoding="UTF-8"?>
<!DOCTYPE svg PUBLIC "-//W3C//DTD SVG 1.1//EN" "http://www.w3.org/Graphics/SVG/1.1/DTD/svg11.dtd">
<!-- Creator: CorelDRAW 2018 (64-Bit Evaluation Version) -->
<svg xmlns="http://www.w3.org/2000/svg" xml:space="preserve" width="2.8293in" height="2.0008in" version="1.1" shape-rendering="geometricPrecision" text-rendering="geometricPrecision" image-rendering="optimizeQuality" fill-rule="evenodd" clip-rule="evenodd"
viewBox="0 0 3021.41 2136.66"
 xmlns:xlink="http://www.w3.org/1999/xlink">
 <g id="Layer_x0020_1">
  <metadata id="CorelCorpID_0Corel-Layer"/>
  <circle fill="#ED3237" cx="1489" cy="980.09" r="980.09"/>
  <path fill="#0080FF" d="M1485.31 0c287.59,0 546.26,123.87 725.54,321.17 -824.83,474.13 -916.93,431.32 -1648.37,989.8 -37.07,-103.36 -57.26,-214.77 -57.26,-330.89 0,-541.29 438.8,-980.09 980.09,-980.09z"/>
  <path fill="#FEFEFE" d="M2791.17 556.16c-2.22,2.51 -4.52,4.94 -6.9,7.29l-1.51 1.49 -1.64 1.33c-62.85,50.95 -125.51,102.17 -186.4,155.45 -12.08,11.54 -25.79,17.04 -41.75,21.41l-64.49 17.64 9.98 -66.11c0.94,-6.24 1.98,-12.46 3.05,-18.68 -95.11,47.9 -188.36,99.4 -280.96,151.94 -222.35,126.16 -439.24,261.98 -649.34,407.64 -177.71,123.2 -352.09,252.53 -511.03,399.52 -29.54,30.14 -60.09,57.54 -87.87,89.76 -13.32,15.46 -42.24,51.31 -49.6,78.38 8.14,0.83 20.21,-6.29 29.65,-0.9 36.45,20.79 37.44,30.74 94.06,52.74 -9.66,20.05 -34.27,32 -53.48,41.29 -22.14,10.7 -45.1,20.28 -67.88,29.54 -33.2,13.49 -66.73,25.77 -99.98,38.98l-2.43 0.97 -2.54 0.67c-3.67,0.97 -7.34,1.98 -11.01,2.97 -49.18,17.99 -103.15,35.57 -154.83,43.72 -42,6.62 -97.78,9.05 -125.88,-29.73 -22.97,-31.7 -13.18,-70.59 3.07,-102.62 21.29,-41.96 57.26,-84.18 88.74,-118.86l0.53 -0.59 0.55 -0.56c80.25,-82.19 168.23,-156.32 258.25,-227.51 187.9,-148.6 385.52,-284.43 586.89,-414.02 182.16,-117.23 368.36,-228.22 559.01,-331.1 138.9,-74.96 279.62,-147.2 425.32,-208 -18.08,-5.86 -36.3,-10.89 -54.7,-14.06l-17.83 -23.19 -18.25 -17.52c-0.26,-5.14 -0.4,-10.28 -0.53,-15.43l-1.1 -42.92 42.9 -1.69c27.13,-1.06 54.27,-0.59 81.14,3.46 97.45,3.23 194.99,-0.65 292.44,3.99l246.6 11.74 -230.25 71.57z"/>
  <path fill="#FEFEFE" d="M2554.78 1040.51c-197.89,100.16 -389.91,211.82 -575.94,332.56 -195.94,127.17 -388.75,260.98 -563.62,416.37 -50.85,48.32 -109.4,98.49 -144.41,160.54 9.84,-0.49 16.43,5.82 21.4,4.31l35.21 14.41 26.45 18.43c-0.09,4.4 -0.28,8.81 -0.46,13.2l-1.12 28.4 -26.45 10.39c-88.86,34.89 -174.89,74.59 -269.44,92.09 -42.23,8.85 -98.54,11.88 -124.49,-30.49 -28.42,-46.41 7.12,-103.54 36.19,-139.91 66.63,-83.35 148.29,-151.91 231.01,-218.57 198.47,-159.94 410.73,-301.88 627.77,-435.21 185.45,-113.93 375.7,-220.45 572.82,-312.92 20.12,-9.44 40.31,-18.76 60.62,-27.79 -4.15,-1.17 34.69,-11.58 30.53,-12.79l1.65 -23.7 25.52 -27.51c0.49,-5.41 -46.51,-23.45 -46.02,-28.86l28.22 -60.08 -27.27 45.3c54.82,0.75 89.68,0.13 144.5,-0.49l13.76 -36.12 3.85 35.91c55.74,-0.66 111.47,-1.47 167.21,-1.44l54.07 0.03 -11.59 52.81c-0.66,3.01 -1.35,6.05 -1.94,9.07l-3.1 15.89 -12.73 10c-45.34,35.63 -85.07,78.18 -129.22,115.37 -8.06,6.79 -15.43,14.76 -22.67,22.4 -20.34,21.44 -39.7,40.4 -67.52,51.9l-73.97 30.59 14.54 -78.71c2.87,-15.54 4.46,-30.52 6.66,-45.39z"/>
  <path fill="#FEFEFE" d="M2387.1 52.59c60.34,0.46 121.24,-1.76 181.67,-2.14 39.71,-0.25 79.6,-0.25 119.29,1.2 25.63,0.93 61.67,2.03 86.11,9.45l64.77 19.65 -44.76 50.77c-11.39,12.92 -51.38,35.52 -67.06,45.13 -18.48,11.33 -37.49,22.4 -55.72,34.08 -33.44,21.44 -65.87,44.39 -99.5,65.56 -21.22,14.75 -43.37,28.48 -63.79,44.32l-13.96 10.83 -17.56 -1.97c-9.01,-1.01 -18.02,-2.04 -27.01,-3.25l-38.32 -5.17 0.21 -13.31c-73.79,34.73 -146.69,71.35 -219.52,108.04 -222.51,112.12 -440.53,233.06 -654.4,360.87 -210.86,126 -418.14,258.28 -617.65,401.68 -93.52,67.22 -184.8,137.67 -272.05,212.88 -46.84,42.8 -94.43,86.24 -133.42,136.53 -6.4,8.85 -24.84,36.28 -26.68,49.72 7.54,3.26 23.63,4.44 29.56,4.64 24.11,0.78 49.88,-2.57 73.59,-6.77l39.03 -6.92 21.06 76.43 -37.07 14.04c-63.33,23.99 -125.85,50.06 -189.69,72.71l-0.46 0.16 -0.46 0.15c-5.79,1.91 -11.59,3.83 -17.34,5.87 -18.86,6.71 -37.7,13.45 -56.82,19.37 -25.45,7.87 -50.89,15.79 -76.63,22.69 -67.99,18.22 -136.89,33.74 -207.53,21.82l-3.23 -0.54 -3.11 -1.02c-21.69,-7.12 -32.07,-19.73 -46.61,-35.56l-12.04 -13.12 0.61 -17.8c0.24,-7.17 0.55,-14.34 0.8,-21.51l0.25 -7.1 2.49 -6.66c22.58,-60.32 65.31,-105.6 109.75,-150.47 64.67,-65.29 135.55,-123.92 208.17,-180.1 200.67,-155.25 413.06,-294.57 628.6,-428.14 269.24,-166.84 545.75,-321.87 827.74,-466.08 5.67,-3.02 11.34,-6.04 17.06,-8.96l0.45 -0.23 0.46 -0.22c82.75,-39.87 164.16,-82.47 247.67,-120.77l0.51 -0.24 0.52 -0.22c28.5,-12.2 55.82,-26.97 84.44,-39.01 91.96,-40.69 183.84,-81.69 277.91,-117.35 4.02,-1.53 8.03,-3.11 12.02,-4.73 -17.87,-5.58 -36.08,-10.2 -54.09,-15.3 -19.75,-3.9 -44.31,-12.74 -63.6,-13 -5.88,0.39 -11.89,-0.05 -17.62,-1.24 -27.36,-5.66 -47.07,-29.18 -42.8,-57.94l1.5 -10.14 5.87 -8.4c5.81,-8.31 13.57,-14.86 22.74,-19.18 13.46,-6.34 20.91,-5.25 34.05,-6.41l0.23 -0.05 1.33 -0.22c29.7,-4.91 51.61,1.68 80.06,2.62z"/>
  <path fill="#0080FF" d="M2325.21 116.03c49.01,-8.11 404.84,16.9 424.44,22.85l-276.49 212.76c2.19,-11.65 -4.02,-109.78 -3.77,-117 -14.37,5.83 -26.17,11 -40.41,16.96 -86.53,39.79 -171.27,83.15 -256.63,125.34 -223.1,113.24 -441.84,234.95 -657.14,362.37 -211.37,127.54 -420.28,259.45 -620.72,403.7 -94.82,67.98 -187.18,139.46 -275.54,215.67 -49.12,44.89 -98.5,90.15 -139.34,142.96 -91.15,124.81 9.48,135.97 118.89,116.55 -63.07,23.89 -125.34,49.86 -188.83,72.4 -6.14,2.03 -12.29,4.05 -18.3,6.2 -18.3,6.51 -36.6,12.89 -55.08,18.79 -24.99,7.56 -49.8,15.54 -75.04,22.23 -61.35,16.52 -125.34,31.69 -189.02,20.94 -12.15,-3.99 -19.89,-14.68 -28.12,-23.65 0.18,-5.4 0.61,-16.15 0.8,-21.49 20.02,-53.49 60.05,-95.62 99.91,-135.1 62.94,-64.3 133.13,-120.92 203.88,-176.3 199.77,-153.89 410.39,-293.17 624.9,-425.56 268.11,-166.67 543.96,-320.8 824.96,-464.5 5.53,-2.95 11.05,-5.89 16.7,-8.78 82.47,-39.73 163.66,-82.22 246.93,-120.42 28.56,-12.22 55.88,-27.02 84.56,-39.05l314.85 -130.88 -136.38 -96.98zm158.61 775.87c116.62,1.59 213.98,8.1 330.6,8.16 -0.2,0.91 -204.28,176.86 -223.51,193.74l-5.74 -116.59 -13.11 5.93c-212.35,105.56 -417.4,225.43 -616.92,353.41 -197.31,129.57 -392.71,263.75 -569.39,420.83 -25.63,24.38 -204.5,186 -155.67,223.22 22.29,19.04 54.53,13.45 80.26,5.65 -0.62,32.42 -224.13,95.2 -262.4,102.25 -98.25,20.77 -102.88,-28.48 -45.87,-100.53 64.85,-80.39 144.81,-146.64 224.33,-211.86 197.55,-158.07 408,-299.31 623.24,-432.01 184.23,-112.68 373.12,-218.31 568.52,-310.6 52.51,-24.01 105.01,-48.27 159.29,-68.1l-93.64 -73.5zm288.92 -375.58c-1.78,0.55 -5.34,1.66 -7.12,2.21 -3.62,4.97 -7.55,9.64 -11.91,13.94 -63.56,51.52 -126.94,103.35 -188.53,157.27 -6.45,6.45 -15.17,9.09 -23.7,11.42 5.1,-33.79 12.65,-64.8 16.09,-98.81 -95.62,29.72 -268.15,135.52 -358.51,187.72 -223.96,126.07 -441.1,263.94 -652.65,409.72 -179.25,125.15 -355.93,255.4 -516.57,404.07 -53.88,55.08 -285.81,318.03 -35.24,242.46 -8.61,17.89 -159.22,67.62 -185.59,78.1 -3.25,0.86 -9.76,2.64 -13.02,3.5 -188.07,68.98 -344.93,85.1 -143.57,-136.7 78.91,-80.82 165.68,-153.58 254.11,-223.77 186.93,-147.57 383.56,-282.36 583.45,-411.56 181.53,-116.25 367.1,-225.99 556.12,-329.4 166.48,-88.43 328.28,-177.39 504.89,-243.89 -28.8,-9.89 -143.21,-57.27 -161.21,-67.6 24.09,-8.03 349.57,-0.28 382.97,1.31z"/>
 </g>
</svg>
