<?xml version="1.0" standalone="no"?>
<!DOCTYPE svg PUBLIC "-//W3C//DTD SVG 20010904//EN"
 "http://www.w3.org/TR/2001/REC-SVG-20010904/DTD/svg10.dtd">
<svg version="1.0" xmlns="http://www.w3.org/2000/svg"
 width="512.000000pt" height="512.000000pt" viewBox="0 0 512.000000 512.000000"
 preserveAspectRatio="xMidYMid meet">
<metadata>
Created by potrace 1.15, written by Peter Selinger 2001-2017
</metadata>
<g transform="translate(0.000000,512.000000) scale(0.100000,-0.100000)"
fill="#ff0000" stroke="none">
<path d="M2405 3796 c-434 -99 -677 -539 -532 -966 29 -87 624 -986 662 -1000
16 -6 34 -6 50 0 17 7 115 144 333 472 273 411 311 473 336 548 52 158 45 354
-19 512 -77 190 -246 345 -450 414 -98 33 -281 43 -380 20z m237 -108 c34 -13
46 -45 24 -66 -12 -12 -43 -16 -143 -18 -198 -3 -330 -50 -453 -161 l-64 -58
34 50 c73 108 179 194 292 237 91 34 241 42 310 16z m45 -434 c168 -80 206
-311 75 -448 -172 -180 -481 -59 -482 190 0 83 23 145 75 198 94 97 211 118
332 60z"/>
<path d="M2435 1514 c-211 -33 -259 -124 -92 -176 61 -20 94 -23 217 -23 123
0 156 3 217 23 140 44 136 113 -8 157 -54 16 -270 29 -334 19z"/>
</g>
</svg>
