<?xml version="1.0" encoding="utf-8"?>
<!-- Generator: Adobe Illustrator 17.0.0, SVG Export Plug-In . SVG Version: 6.00 Build 0)  -->
<!DOCTYPE svg PUBLIC "-//W3C//DTD SVG 1.1//EN" "http://www.w3.org/Graphics/SVG/1.1/DTD/svg11.dtd">
<svg version="1.1" id="Layer_1" xmlns="http://www.w3.org/2000/svg" xmlns:xlink="http://www.w3.org/1999/xlink" x="0px" y="0px"
	 width="35.61px" height="44.93px" viewBox="0 0 35.61 44.93" enable-background="new 0 0 35.61 44.93" xml:space="preserve">
<g>
	<path fill="#0096E6" d="M26.132,4.934L26.132,4.934c-5.893-5.893-15.447-5.893-21.341,0l0,0c-5.31,5.31-5.908,15.308-1.401,21.316
		l12.072,17.434l12.072-17.434C32.04,20.242,31.442,10.244,26.132,4.934z M15.608,20.439c-2.751,0-4.981-2.23-4.981-4.981
		s2.23-4.981,4.981-4.981s4.981,2.23,4.981,4.981S18.359,20.439,15.608,20.439z"/>
	<g>
		<circle fill="#26B999" cx="25.277" cy="34.553" r="9.962"/>
		<path fill="#FFFFFF" d="M30.732,29.72c-0.378-0.262-0.894-0.169-1.156,0.208l-4.646,6.675l-3.278-2.691
			c-0.354-0.291-0.878-0.239-1.168,0.115c-0.291,0.354-0.24,0.878,0.115,1.168l3.973,3.262c0.149,0.122,0.335,0.188,0.526,0.188
			c0.037,0,0.076-0.002,0.114-0.007c0.229-0.032,0.435-0.158,0.568-0.348l5.159-7.413C31.201,30.5,31.108,29.982,30.732,29.72z"/>
	</g>
</g>
</svg>
