<?xml version="1.0" encoding="utf-8"?>
<!-- Generator: Adobe Illustrator 17.0.0, SVG Export Plug-In . SVG Version: 6.00 Build 0)  -->
<svg version="1.2" baseProfile="tiny" id="Layer_1" xmlns="http://www.w3.org/2000/svg" xmlns:xlink="http://www.w3.org/1999/xlink"
	 x="0px" y="0px" width="1280px" height="720px" viewBox="0 0 1280 720" xml:space="preserve">
<rect fill="#E30513" width="1280" height="720"/>
<g>
	<path fill="#FFFFFF" d="M618.946,82.755c0,56.215-0.399,58.209-9.967,68.574c-15.15,16.346-23.124,49.039-23.523,97.28
		c-0.399,45.849,7.575,76.15,21.928,83.725c6.778,3.987,7.575,9.17,7.575,66.182v61.797l-8.771-2.791
		c-23.124-6.778-51.032-36.281-65.784-67.777c-16.745-37.078-22.327-79.339-19.934-155.09c1.595-53.424,3.987-74.156,10.765-97.679
		c15.948-54.62,37.078-87.313,67.777-103.659c7.575-4.386,15.15-7.575,17.144-7.974C617.749,25.344,618.946,51.258,618.946,82.755z"
		/>
	<path fill="#FFFFFF" d="M663.997,30.527c5.98,4.386,6.778,11.562,5.98,58.607l-1.196,53.823l-23.523,1.196
		c-22.725,1.196-23.124,0.797-20.732-7.974c1.196-5.183,2.392-31.895,2.392-60.202V25.344h15.15
		C650.442,25.344,660.409,27.736,663.997,30.527z"/>
	<path fill="#FFFFFF" d="M665.991,341.105c5.98,5.98,6.778,100.071,0.797,111.234c-3.19,5.98-8.771,7.575-23.921,7.575h-19.934
		v-61.797v-61.797h19.137C652.435,336.321,663.2,338.314,665.991,341.105z"/>
</g>
<text transform="matrix(1 0 0 1 378.6716 658.5752)" fill="#FFFFFF" font-family="'MyriadPro-Bold'" font-size="300">sos</text>
</svg>
