<svg xmlns="http://www.w3.org/2000/svg" viewBox="0 0 36 44"><defs><style>.cls-1{fill:#231f20;}</style></defs><title>589320995-2</title><g id="Layer_8" data-name="Layer 8"><path class="cls-1" d="M302.75,230a1.14,1.14,0,0,0,.75-.27l3.2-2.82a2.1,2.1,0,0,0,.8-1.73,2.2,2.2,0,0,0-1-1.66,3.18,3.18,0,0,0-3.25-.12,2.67,2.67,0,0,0-.49.35,2.67,2.67,0,0,0-.49-.35,3.18,3.18,0,0,0-3.25.12,2.2,2.2,0,0,0-1,1.66,2.09,2.09,0,0,0,.79,1.72l3.21,2.83A1.14,1.14,0,0,0,302.75,230Zm-3.56-4.78a1.22,1.22,0,0,1,.57-.94,1.82,1.82,0,0,1,1.84-.07,1.34,1.34,0,0,1,.59.64.64.64,0,0,0,1.12,0,1.34,1.34,0,0,1,.59-.64,1.82,1.82,0,0,1,1.84.07,1.22,1.22,0,0,1,.57.94,1.19,1.19,0,0,1-.46,1l-3.1,2.74-3.11-2.75A1.18,1.18,0,0,1,299.19,225.22Z" transform="translate(-275.5 -190)"/></g><g id="Layer_2" data-name="Layer 2"><path class="cls-1" d="M307.39,219.42l-7.72-1.4a1,1,0,0,0-.82.21l-4.08,3.4a2,2,0,0,1-2.56,0l-.08-.06-2.08-1.4a1,1,0,0,0-1.12,1.66l2,1.37a4,4,0,0,0,1.52.75v5a1,1,0,0,0,2,0v-5a4,4,0,0,0,1.56-.79l3.72-3.1,7.25,1.32a3,3,0,0,1,2.46,3V231a1,1,0,0,1-1,1h-30a1,1,0,0,1-1-1v-6.66a3,3,0,0,1,2.46-3l7.72-1.4a1,1,0,0,0-.36-2l-7.72,1.4a5,5,0,0,0-4.1,4.92V231a3,3,0,0,0,3,3h30a3,3,0,0,0,3-3v-6.66A5,5,0,0,0,307.39,219.42Z" transform="translate(-275.5 -190)"/><circle class="cls-1" cx="15" cy="13" r="1"/><circle class="cls-1" cx="21" cy="13" r="1"/><path class="cls-1" d="M283.5,207h.64c.07.49.12.81.13.84a8.75,8.75,0,0,0,1.94,4.57l.21.26A9.1,9.1,0,0,0,293.5,216a9.23,9.23,0,0,0,4.41-1.12,1,1,0,1,0-1-1.76,7.23,7.23,0,0,1-3.45.88,7.11,7.11,0,0,1-5.53-2.59l-.21-.26a6.81,6.81,0,0,1-1.5-3.58s-.75-4.74-.75-6.57v-3a6,6,0,0,1,6-6h4a6,6,0,0,1,6,5.95,8.34,8.34,0,0,1-4.37-1.73v0a1,1,0,0,0-1.15-.1,20.67,20.67,0,0,1-7.63,2.58,1,1,0,0,0,.14,2h.15a23,23,0,0,0,7.77-2.53A10.52,10.52,0,0,0,301.5,200v1c0,1.84-.75,6.53-.76,6.62a6.63,6.63,0,0,1-.33,1.38h-4a1.5,1.5,0,0,0-1.41-1h-3a1.5,1.5,0,0,0,0,3h10.5a3,3,0,0,0,3-3v-1.78a3,3,0,0,0,1-2.22v-2a3,3,0,0,0-3-3v-1a8,8,0,0,0-8-8h-4a8,8,0,0,0-8,8v1a3,3,0,0,0-3,3v2A3,3,0,0,0,283.5,207Zm20-6a1,1,0,0,1,1,1v2a1,1,0,0,1-1,1Zm-.78,6.89c0-.05.06-.39.14-.89h.64v1a1,1,0,0,1-1,1A8.3,8.3,0,0,0,302.72,207.89ZM282.5,202a1,1,0,0,1,1-1v4a1,1,0,0,1-1-1Z" transform="translate(-275.5 -190)"/></g></svg>